nColumns=19
nRows=71
DataType=double
version=3
OpenSimVersion=4.1
endheader
time	ground_force_calcn_r_vx	ground_force_calcn_r_vy	ground_force_calcn_r_vz	ground_force_calcn_r_px	ground_force_calcn_r_py	ground_force_calcn_r_pz	ground_force_calcn_r_mx	ground_force_calcn_r_my	ground_force_calcn_r_mz	ground_force_calcn_l_vx	ground_force_calcn_l_vy	ground_force_calcn_l_vz	ground_force_calcn_l_px	ground_force_calcn_l_py	ground_force_calcn_l_pz	ground_force_calcn_l_mx	ground_force_calcn_l_my	ground_force_calcn_l_mz
0	3.94827	225.574	35.818	0.129105	0	-0.193968	0.0184378	1.05339	0.167264	0	0	0	0	0	0	0	0	0
0.01	-4.059	253.646	35.4486	0.134723	0	-0.192996	-0.0140122	0.875621	0.122373	0	0	0	0	0	0	0	0	0
0.02	-12.8833	285.995	34.3815	0.141238	0	-0.191567	-0.0298525	0.662694	0.0796671	0	0	0	0	0	0	0	0	0
0.03	-22.3642	322.16	32.4065	0.147611	0	-0.189905	-0.0289982	0.417724	0.0420194	0	0	0	0	0	0	0	0	0
0.04	-32.3329	361.431	29.3452	0.153761	0	-0.188076	-0.0130104	0.145436	0.0118082	0	0	0	0	0	0	0	0	0
0.05	-42.5969	402.904	25.1039	0.159649	0	-0.186147	0.0153937	-0.145601	-0.00907204	0	0	0	0	0	0	0	0	0
0.06	-52.927	445.53	19.7178	0.165257	0	-0.184185	0.052407	-0.441153	-0.0195241	0	0	0	0	0	0	0	0	0
0.07	-63.0536	488.156	13.3723	0.170567	0	-0.182259	0.0931969	-0.721523	-0.019765	0	0	0	0	0	0	0	0	0
0.08	-72.669	529.559	6.39157	0.175566	0	-0.180428	0.132466	-0.965314	-0.011651	0	0	0	0	0	0	0	0	0
0.09	-81.441	568.537	-0.818765	0.180243	0	-0.178742	0.165594	-1.156	0.00166479	0	0	0	0	0	0	0	0	0
0.1	-89.05	604.028	-7.85286	0.184599	0	-0.177227	0.189807	-1.28747	0.0167381	0	0	0	0	0	0	0	0	0
0.11	-95.2454	635.23	-14.3835	0.188648	0	-0.175888	0.204792	-1.36584	0.0309266	0	0	0	0	0	0	0	0	0
0.12	-99.8873	661.643	-20.1857	0.192421	0	-0.174711	0.212111	-1.405	0.0428643	0	0	0	0	0	0	0	0	0
0.13	-102.934	683.025	-25.1157	0.195953	0	-0.173678	0.213967	-1.4198	0.0522079	0	0	0	0	0	0	0	0	0
0.14	-104.424	699.33	-29.1028	0.199287	0	-0.172769	0.21254	-1.42339	0.0592346	0	0	0	0	0	0	0	0	0
0.15	-104.466	710.673	-32.1472	0.202464	0	-0.171956	0.20974	-1.42685	0.0645433	0	0	0	0	0	0	0	0	0
0.16	-103.209	717.297	-34.3011	0.205534	0	-0.171218	0.206917	-1.43806	0.0687681	0	0	0	0	0	0	0	0	0
0.17	-100.823	719.543	-35.6425	0.208536	0	-0.170534	0.204714	-1.46098	0.0723693	0	0	0	0	0	0	0	0	0
0.18	-97.487	717.84	-36.256	0.211515	0	-0.16989	0.203228	-1.49646	0.0755817	0	0	0	0	0	0	0	0	0
0.19	-93.3816	712.699	-36.2238	0.214506	0	-0.169271	0.202293	-1.54392	0.0784718	0	0	0	0	0	0	0	0	0
0.2	-88.6928	704.705	-35.6237	0.217548	0	-0.168674	0.201734	-1.60287	0.0810273	0	0	0	0	0	0	0	0	0
0.21	-83.6079	694.504	-34.5305	0.220674	0	-0.16809	0.201517	-1.67393	0.0832273	0	0	0	0	0	0	0	0	0
0.22	-78.3086	682.776	-33.0189	0.223909	0	-0.167519	0.201767	-1.75921	0.0850753	0	0	0	0	0	0	0	0	0
0.23	-72.9624	670.207	-31.1666	0.227276	0	-0.166963	0.202714	-1.86206	0.0865913	0	0	0	0	0	0	0	0	0
0.24	-67.716	657.453	-29.0544	0.23079	0	-0.166423	0.204612	-1.98657	0.0877914	0	0	0	0	0	0	0	0	0
0.25	-62.6862	645.1	-26.7665	0.234454	0	-0.165899	0.207662	-2.13704	0.0886701	0	0	0	0	0	0	0	0	0
0.26	-57.9513	633.633	-24.3904	0.238264	0	-0.165397	0.211933	-2.31725	0.0891979	0	0	0	0	0	0	0	0	0
0.27	-53.546	623.425	-22.0188	0.242202	0	-0.164916	0.217272	-2.52965	0.0893448	0	0	0	0	0	0	0	0	0
0.28	-49.4629	614.737	-19.7505	0.246241	0	-0.164457	0.223261	-2.77474	0.0891479	0	0	0	0	0	0	0	0	0
0.29	-45.6637	607.73	-17.6888	0.250347	0	-0.164017	0.229216	-3.05059	0.0887916	0	0	0	0	0	0	0	0	0
0.3	-42.0933	602.493	-15.9343	0.254484	0	-0.163595	0.234244	-3.35281	0.0886728	0	0	0	0	0	0	0	0	0
0.31	-38.6919	599.061	-14.5769	0.258622	0	-0.163185	0.237364	-3.67506	0.0894248	0	0	0	0	0	0	0	0	0
0.32	-35.4039	597.447	-13.6879	0.262732	0	-0.162788	0.237615	-4.00979	0.0918669	0	0	0	0	0	0	0	0	0
0.33	-32.1827	597.66	-13.3135	0.266798	0	-0.162406	0.23418	-4.34892	0.0968767	0	0	0	0	0	0	0	0	0
0.34	-28.9935	599.718	-13.4725	0.270808	0	-0.162043	0.226477	-4.68458	0.105238	0	0	0	0	0	0	0	0	0
0.35	-25.8148	603.647	-14.1595	0.274758	0	-0.161708	0.214226	-5.0094	0.117503	0	0	0	0	0	0	0	0	0
0.36	-22.6373	609.473	-15.3491	0.278652	0	-0.161407	0.197474	-5.31669	0.133897	0	0	0	0	0	0	0	0	0
0.37	-19.46	617.194	-17.0031	0.282501	0	-0.161153	0.176574	-5.60025	0.154281	0	0	0	0	0	0	0	0	0
0.38	-16.2856	626.763	-19.0737	0.286318	0	-0.160948	0.152109	-5.85399	0.178149	0	0	0	0	0	0	0	0	0
0.39	-13.1145	638.063	-21.5069	0.290117	0	-0.1608	0.124798	-6.07184	0.204661	0	0	0	0	0	0	0	0	0
0.4	-9.93722	650.908	-24.2429	0.29391	0	-0.160709	0.0953866	-6.24801	0.232705	0	0	0	0	0	0	0	0	0
0.41	-6.73013	665.049	-27.215	0.297706	0	-0.160678	0.0645414	-6.37776	0.26099	0	0	0	0	0	0	0	0	0
0.42	-3.4532	680.192	-30.3512	0.301503	0	-0.160702	0.0327841	-6.45763	0.28815	0	0	0	0	0	0	0	0	0
0.43	-0.0495823	696.001	-33.5763	0.305291	0	-0.160783	0.000462027	-6.4856	0.312877	0	0	0	0	0	0	0	0	0
0.44	3.55304	712.098	-36.8167	0.309054	0	-0.160917	-0.0322374	-6.461	0.334045	0	0	0	0	0	0	0	0	0
0.45	7.43682	728.061	-40.0067	0.312766	0	-0.1611	-0.0652108	-6.3841	0.350805	0	0	0	0	0	0	0	0	0
0.46	11.6816	743.416	-43.0927	0.316403	0	-0.161327	-0.0982974	-6.25561	0.362611	0	0	0	0	0	0	0	0	0
0.47	16.3517	757.649	-46.0338	0.319942	0	-0.161589	-0.131141	-6.07637	0.369192	0	0	0	0	0	0	0	0	0
0.48	21.4851	770.215	-48.7973	0.323362	0	-0.161878	-0.163124	-5.8478	0.37049	0	0	0	0	0	0	0	0	0
0.49	27.0874	780.556	-51.3531	0.326652	0	-0.162185	-0.193381	-5.57249	0.366617	0	0	0	0	0	0	0	0	0
0.5	33.1288	788.12	-53.6709	0.329802	0	-0.162504	-0.220875	-5.25451	0.357832	0	0	0	0	0	0	0	0	0
0.51	39.5404	792.365	-55.7199	0.33281	0	-0.162826	-0.244488	-4.89939	0.34453	0	0	0	0	0	0	0	0	0
0.52	46.2108	792.759	-57.4649	0.335679	0	-0.163144	-0.26314	-4.51424	0.327225	0	0	0	0	0	0	0	0	0
0.53	52.9878	788.786	-58.8613	0.338422	0	-0.163454	-0.275963	-4.10804	0.306553	0.0878457	35.6727	-8.75928	0.765543	0	-0.25349	0.000125037	0.0507753	-0.0124677
0.54	59.6817	779.969	-59.8533	0.341052	0	-0.163754	-0.282481	-3.69169	0.283293	-1.90617	59.3874	-10.2196	0.798694	0	-0.274134	-0.00473483	0.147516	-0.0253851
0.55	66.0734	765.896	-60.378	0.343592	0	-0.164042	-0.28273	-3.27729	0.258359	-4.72309	88.564	-11.6536	0.816991	0	-0.28523	-0.0100885	0.189173	-0.0248921
0.56	71.9222	746.256	-60.3729	0.346065	0	-0.16432	-0.277291	-2.87713	0.232763	-8.50432	123.338	-12.942	0.829184	0	-0.292305	-0.0146968	0.213147	-0.0223658
0.57	76.978	720.875	-59.7861	0.348497	0	-0.16459	-0.26722	-2.50244	0.207541	-13.3827	163.557	-13.9319	0.838347	0	-0.297374	-0.0193651	0.236672	-0.0201599
0.58	80.9988	689.756	-58.5854	0.350913	0	-0.164853	-0.253898	-2.1621	0.183641	-19.4319	208.823	-14.4639	0.845847	0	-0.301339	-0.0251696	0.270483	-0.0187348
0.59	83.7702	653.104	-56.7623	0.353341	0	-0.165106	-0.23881	-1.86185	0.161816	-26.6252	258.551	-14.3985	0.852368	0	-0.304653	-0.0332521	0.322903	-0.0179822
0.6	85.1165	611.346	-54.3332	0.355806	0	-0.165352	-0.223264	-1.60359	0.142518	-34.8159	311.996	-13.6315	0.858271	0	-0.307563	-0.0447471	0.400992	-0.0175198
0.61	84.9061	565.129	-51.3357	0.358335	0	-0.165585	-0.20815	-1.38543	0.125851	-43.7538	368.219	-12.1059	0.863754	0	-0.310211	-0.0606506	0.510417	-0.0167809
0.62	83.0608	515.311	-47.8272	0.36096	0	-0.165802	-0.193782	-1.20223	0.111582	-53.1196	426.07	-9.81987	0.868924	0	-0.312676	-0.0816373	0.654809	-0.0150918
0.63	79.5793	462.928	-43.8875	0.363714	0	-0.165997	-0.179899	-1.04651	0.0992134	-62.5586	484.246	-6.8371	0.873848	0	-0.315007	-0.1078	0.834447	-0.0117816
0.64	74.5616	409.155	-39.6193	0.36664	0	-0.166162	-0.165874	-0.910232	0.0881397	-71.7125	541.413	-3.28951	0.878568	0	-0.317231	-0.138551	1.04603	-0.00635547
0.65	68.2072	355.247	-35.1461	0.369791	0	-0.166288	-0.150913	-0.786007	0.0777631	-80.2516	596.307	0.637823	0.883119	0	-0.319366	-0.172928	1.28494	0.0013744
0.66	60.8078	302.473	-30.607	0.373241	0	-0.166363	-0.134238	-0.667731	0.0675673	-87.9053	647.81	4.73979	0.887535	0	-0.321427	-0.209958	1.54727	0.0113208
0.67	52.7362	252.023	-26.1404	0.377088	0	-0.166365	-0.115459	-0.551773	0.0572311	-94.4777	694.993	8.82652	0.891841	0	-0.32343	-0.24882	1.83036	0.0232458
0.68	44.4014	204.941	-21.8688	0.381486	0	-0.16627	-0.0946945	-0.437075	0.0466394	-99.8551	737.157	12.753	0.89607	0	-0.325395	-0.288898	2.13272	0.0368967
0.69	36.1992	162.053	-17.8868	0.386682	0	-0.16604	-0.0725113	-0.324613	0.0358295	-104.001	773.826	16.4191	0.900246	0	-0.327339	-0.329662	2.45287	0.052045
0.7	28.4708	123.933	-14.2568	0.393103	0	-0.16561	-0.0496958	-0.216325	0.0248852	-106.925	804.694	19.7426	0.904394	0	-0.329278	-0.370323	2.78698	0.0683764
